Coordinates
version=1
nRows=10
nColumns=40
inDegrees=yes

Units are S.I. units (second, meters, Newtons, ...)
Angles are in degrees.

endheader
time	pelvis_tilt	pelvis_list	pelvis_rotation	pelvis_tx	pelvis_ty	pelvis_tz	hip_flexion_r	hip_adduction_r	hip_rotation_r	knee_angle_r	knee_angle_r_beta	ankle_angle_r	subtalar_angle_r	mtp_angle_r	hip_flexion_l	hip_adduction_l	hip_rotation_l	knee_angle_l	knee_angle_l_beta	ankle_angle_l	subtalar_angle_l	mtp_angle_l	lumbar_extension	lumbar_bending	lumbar_rotation	arm_flex_r	arm_add_r	arm_rot_r	elbow_flex_r	pro_sup_r	wrist_flex_r	wrist_dev_r	arm_flex_l	arm_add_l	arm_rot_l	elbow_flex_l	pro_sup_l	wrist_flex_l	wrist_dev_l
      4.16000000	     -5.47082536	     -5.24673287	      1.78467303	      1.00211349	      0.93059391	      0.49243746	     14.45752010	      3.10594833	    -20.69937999	     14.81130461	     14.81130461	      9.99971983	      7.58141445	     -3.96562289	     33.52400127	    -14.63110739	     -1.20665142	     62.88936947	     62.88936947	     11.32568704	    -17.70737087	      9.89031219	    -12.67215269	      7.85563395	      5.62546280	     14.43769513	    -13.74680228	     -1.73056046	     36.52968262	     46.12908142	      0.00000000	      0.00000000	     -3.52773611	     -7.27623839	     -1.08001787	     55.91869841	     46.79000525	      0.00000000	      0.00000000
      4.17171429	     -5.55269949	     -5.25015612	      1.94207758	      1.00108892	      0.93069351	      0.49312825	     13.82549938	      3.26839165	    -20.55096570	     14.41639554	     14.41639554	     10.19827885	      7.40889995	     -4.22448293	     35.02693441	    -14.51992040	     -0.96817313	     61.47072407	     61.47072407	     11.20672718	    -17.83549675	      9.91603886	    -12.65374962	      7.78048279	      5.52099267	     16.90592152	    -13.61331987	     -1.28174687	     38.32669706	     46.03329579	      0.00000000	      0.00000000	     -4.33654689	     -7.02261903	     -1.63372001	     51.51587188	     46.80103822	      0.00000000	      0.00000000
      4.18342857	     -5.61036873	     -5.26043630	      2.10628896	      1.00010639	      0.93078583	      0.49376128	     13.16081404	      3.42429851	    -20.51627232	     14.00973240	     14.00973240	     10.39005338	      7.39923330	     -4.50864362	     36.33558932	    -14.37063941	     -0.73644081	     59.80912490	     59.80912490	     11.03776903	    -17.92533154	     10.12187820	    -12.67522555	      7.72734429	      5.55730374	     19.11400555	    -13.67788494	     -0.46550325	     40.75105359	     45.89418350	      0.00000000	      0.00000000	     -4.79637160	     -6.72352997	     -2.31437529	     46.62172683	     46.83122813	      0.00000000	      0.00000000
      4.19514286	     -5.65626137	     -5.25479936	      2.24844845	      0.99918919	      0.93086193	      0.49436730	     12.47372805	      3.57081395	    -20.46658175	     13.57986461	     13.57986461	     10.58148857	      7.41109815	     -4.73590564	     37.44521216	    -14.16141935	     -0.51703630	     57.91732778	     57.91732778	     10.88174610	    -17.93898335	     10.52167004	    -12.71360106	      7.65542671	      5.65934504	     21.23028582	    -13.80085385	      0.38239978	     43.28558366	     45.75630285	      0.00000000	      0.00000000	     -5.11827500	     -6.47374632	     -3.00942873	     41.85192240	     46.86773668	      0.00000000	      0.00000000
      4.20685714	     -5.68419085	     -5.27379202	      2.39561307	      0.99829797	      0.93088655	      0.49490858	     11.76080606	      3.74443652	    -20.42909765	     13.13273576	     13.13273576	     10.84201148	      7.44123256	     -4.77303702	     38.38332689	    -13.91944945	     -0.24549506	     55.81253615	     55.81253615	     10.65389762	    -17.88082822	     10.92511541	    -12.82279975	      7.59197610	      5.30241566	     23.76038422	    -13.36830801	      0.45993943	     45.25079149	     45.69180637	      0.00000000	      0.00000000	     -6.47558061	     -6.65399182	     -3.07373239	     39.66466381	     46.84184637	      0.00000000	      0.00000000
      4.21857143	     -5.71730688	     -5.31507586	      2.54818002	      0.99747878	      0.93085503	      0.49538110	     11.02052441	      3.94817149	    -20.43895104	     12.60988632	     12.60988632	     11.03854796	      7.57559536	     -4.84916303	     39.19106311	    -13.63644977	      0.09949939	     53.54086724	     53.54086724	     10.42643626	    -17.70072108	     11.27346693	    -12.88859788	      7.54807280	      5.07082319	     26.06223227	    -13.07319020	      0.85415477	     47.57881998	     45.59780275	      0.00000000	      0.00000000	     -7.27697577	     -6.69798408	     -3.30211056	     36.43186557	     46.83843499	      0.00000000	      0.00000000
      4.23028571	     -5.82195610	     -5.36675249	      2.62398476	      0.99669036	      0.93071482	      0.49577187	     10.37522009	      4.14763729	    -20.46131521	     12.11824847	     12.11824847	     11.16662845	      7.76412082	     -5.13144822	     39.88636555	    -13.38416288	      0.36464723	     51.03112683	     51.03112683	     10.05602545	    -17.31295305	     11.22458935	    -12.87086556	      7.54700636	      6.02099337	     27.15387335	    -14.19922648	      2.32368899	     51.65942130	     45.38753309	      0.00000000	      0.00000000	     -6.32956671	     -6.32172789	     -4.59727234	     30.56657674	     46.98033143	      0.00000000	      0.00000000
      4.24200000	     -6.01919248	     -5.52233447	      2.67503726	      0.99590990	      0.93024969	      0.49615096	      9.99684233	      4.39299768	    -20.47995020	     11.96284574	     11.96284574	     11.45200112	      7.82484751	     -5.23026094	     40.59401841	    -13.20515675	      0.72461369	     48.42178501	     48.42178501	      9.93915165	    -16.58846148	     11.55617601	    -12.68731922	      7.60965330	      6.64550376	     29.22189436	    -14.41898756	      2.14784711	     52.67586483	     45.37005706	      0.00000000	      0.00000000	     -7.40333697	     -6.62376477	     -4.68914702	     29.96386422	     46.97516247	      0.00000000	      0.00000000
      4.25371429	     -5.99406980	     -5.44650208	      2.78297652	      0.99542167	      0.93036196	      0.49625700	      8.93343142	      4.54127558	    -20.46301306	     10.96823907	     10.96823907	     11.54586656	      8.22419956	     -5.07943267	     40.76167467	    -12.74864071	      0.99257934	     45.48334561	     45.48334561	      9.65231662	    -15.82066670	     11.73071634	    -12.92423095	      7.43489998	      5.47432411	     31.69582150	    -13.23857457	      2.41213274	     56.04626763	     45.25241861	      0.00000000	      0.00000000	     -8.84179389	     -6.83809231	     -4.80032404	     28.04208388	     46.96345139	      0.00000000	      0.00000000
      4.26542857	     -6.10548357	     -5.60879847	      2.84579761	      0.99501720	      0.92996804	      0.49631077	      8.15216850	      4.86949580	    -20.64017695	     10.24561092	     10.24561092	     11.68188812	      8.74746898	     -5.12563354	     41.01130524	    -12.58305224	      1.24468258	     42.45059471	     42.45059471	      9.03801297	    -14.75823647	     10.72611901	    -12.95053099	      7.57446526	      6.21870081	     32.38289223	    -14.50832527	      3.84598532	     62.07562668	     45.00397162	      0.00000000	      0.00000000	     -8.82979810	     -6.88510060	     -5.66820683	     25.16531027	     47.08470083	      0.00000000	      0.00000000
